# File generated by ImageToStl.com - Free Image and 3D model conversion tools

mtllib gold_star(1).mtl

o obj1
v 12.68069811 -4.12020779 -0.5855479
v -4.4E-07 -1.88E-06 -5.73111617
v 28.6185735 9.29874104 -0.58554913
v 7.83710224 10.78684678 -0.58554925
v 17.68725546 -24.34441331 -0.58554615
v 2.04E-06 -13.33327369 -0.58554711
v -17.68724974 -24.34441712 -0.58554615
v -12.68069716 -4.12021017 -0.5855479
v -28.61857541 9.29873722 -0.58554913
v -7.83710128 10.78684487 -0.58554925
v -4.4E-07 30.09134788 -0.58555097
v 12.68069811 -4.1202076 0.58554882
v 28.6185735 9.29874123 0.58554759
v -4.4E-07 -4E-08 5.73111617
v 7.83710224 10.78684697 0.58554746
v 17.68725546 -24.34441312 0.58555057
v 2.04E-06 -13.33327349 0.58554961
v -17.68724974 -24.34441693 0.58555057
v -12.68069716 -4.12020998 0.58554882
v -28.61857541 9.29873741 0.58554759
v -7.83710128 10.78684506 0.58554746
v -4.4E-07 30.09134807 0.58554575
v -4.4E-07 30.09134788 -0.58555097
v -4.4E-07 30.09134807 0.58554575
v 7.83710224 10.78684697 0.58554746
v 7.83710224 10.78684678 -0.58554925
v 2.04E-06 -13.33327369 -0.58554711
v 2.04E-06 -13.33327349 0.58554961
v -17.68724974 -24.34441693 0.58555057
v -17.68724974 -24.34441712 -0.58554615
v 28.6185735 9.29874104 -0.58554913
v 28.6185735 9.29874123 0.58554759
v 12.68069811 -4.1202076 0.58554882
v 12.68069811 -4.12020779 -0.5855479
v -28.61857541 9.29873722 -0.58554913
v -28.61857541 9.29873741 0.58554759
v -7.83710128 10.78684506 0.58554746
v -7.83710128 10.78684487 -0.58554925
v 12.68069811 -4.12020779 -0.5855479
v 12.68069811 -4.1202076 0.58554882
v 17.68725546 -24.34441312 0.58555057
v 17.68725546 -24.34441331 -0.58554615
v -7.83710128 10.78684487 -0.58554925
v -7.83710128 10.78684506 0.58554746
v -4.4E-07 30.09134807 0.58554575
v -4.4E-07 30.09134788 -0.58555097
v -17.68724974 -24.34441712 -0.58554615
v -17.68724974 -24.34441693 0.58555057
v -12.68069716 -4.12020998 0.58554882
v -12.68069716 -4.12021017 -0.5855479
v 7.83710224 10.78684678 -0.58554925
v 7.83710224 10.78684697 0.58554746
v 28.6185735 9.29874123 0.58554759
v 28.6185735 9.29874104 -0.58554913
v -12.68069716 -4.12021017 -0.5855479
v -12.68069716 -4.12020998 0.58554882
v -28.61857541 9.29873741 0.58554759
v -28.61857541 9.29873722 -0.58554913
v 17.68725546 -24.34441331 -0.58554615
v 17.68725546 -24.34441312 0.58555057
v 2.04E-06 -13.33327349 0.58554961
v 2.04E-06 -13.33327369 -0.58554711
vn 0.26654 0.91035 -0.31657
vn 0.02956 0.91035 0.41278
vn 0.40171 0.91035 0.09945
vn -0.21871 0.91035 -0.35132
vn 0.21871 0.91035 -0.35132
vn -0.40171 0.91035 0.09945
vn -0.26654 0.91035 -0.31657
vn -0.02956 0.91035 0.41278
vn -0.38345 0.91035 0.15567
vn 0.38345 0.91035 0.15567
vn 0.26654 -0.91035 -0.31657
vn 0.02956 -0.91035 0.41278
vn 0.40171 -0.91035 0.09945
vn -0.21871 -0.91035 -0.35132
vn 0.21871 -0.91035 -0.35132
vn -0.40171 -0.91035 0.09945
vn -0.26654 -0.91035 -0.31657
vn -0.02956 -0.91035 0.41278
vn -0.38345 -0.91035 0.15567
vn 0.38345 -0.91035 0.15567
vn 0.92656 0 0.37616
vn 0.5285 0 -0.84893
vn 0.64407 0 -0.76497
vn -0.07142 0 0.99745
vn 0.9707 0 0.2403
vn -0.92656 0 0.37616
vn -0.9707 0 0.2403
vn 0.07142 0 0.99745
vn -0.64407 0 -0.76497
vn -0.5285 0 -0.84893
vt 0.81272 0.85794
vt 0.77817 0.73181
vt 0.68846 1
vt 0.67468 0.81177
vt 1 0.90643
vt 0.89804 0.74468
vt 1 0.58641
vt 0.81272 0.62851
vt 0.68846 0.4822
vt 0.67468 0.66997
vt 0.49591 0.73781
vt 0.17587 0.66514
vt 0 0.74207
vt 0.26486 0.72795
vt 0.17587 0.80927
vt 0.18942 0.47367
vt 0.31167 0.61685
vt 0.49591 0.56572
vt 0.3956 0.73114
vt 0.49591 0.89101
vt 0.31167 0.85006
vt 0.18942 1
vt 0.57204 0.28921
vt 0.56117 0.28921
vt 0.56117 0.4822
vt 0.57204 0.4822
vt 0.53941 0.28921
vt 0.52854 0.28921
vt 0.52854 0.4822
vt 0.53941 0.4822
vt 0.51766 0.28921
vt 0.50679 0.28921
vt 0.50679 0.4822
vt 0.51766 0.4822
vt 0.58292 0.4822
vt 0.59379 0.4822
vt 0.59379 0.28921
vt 0.58292 0.28921
vt 0.58292 0.28921
vt 0.57204 0.28921
vt 0.57204 0.4822
vt 0.58292 0.4822
vt 0.55029 0.4822
vt 0.56117 0.4822
vt 0.56117 0.28921
vt 0.55029 0.28921
vt 0.53941 0.4822
vt 0.55029 0.4822
vt 0.55029 0.28921
vt 0.53941 0.28921
vt 0.60467 0.28921
vt 0.59379 0.4822
vt 0.60467 0.4822
vt 0.52854 0.4822
vt 0.52854 0.28921
vt 0.51766 0.28921
vt 0.49591 0.4822
vt 0.50679 0.4822
vt 0.50679 0.28921
vt 0.49591 0.28921
usemtl mat0
f 1/1/1 2/2/1 3/3/1
f 3/3/2 2/2/2 4/4/2
f 5/5/3 2/2/3 1/1/3
f 6/6/4 2/2/4 5/5/4
f 7/7/5 2/2/5 6/6/5
f 8/8/6 2/2/6 7/7/6
f 9/9/7 2/2/7 8/8/7
f 10/10/8 2/2/8 9/9/8
f 11/11/9 2/2/9 10/10/9
f 4/4/10 2/2/10 11/11/10
f 12/12/11 13/13/11 14/14/11
f 13/13/12 15/15/12 14/14/12
f 16/16/13 12/12/13 14/14/13
f 17/17/14 16/16/14 14/14/14
f 18/18/15 17/17/15 14/14/15
f 19/19/16 18/18/16 14/14/16
f 20/20/17 19/19/17 14/14/17
f 21/21/18 20/20/18 14/14/18
f 22/22/19 21/21/19 14/14/19
f 15/15/20 22/22/20 14/14/20
f 23/23/21 24/24/21 25/25/21
f 23/23/21 25/25/21 26/26/21
f 27/27/22 28/28/22 29/29/22
f 27/27/22 29/29/22 30/30/22
f 31/31/23 32/32/23 33/33/23
f 31/31/23 33/33/23 34/34/23
f 35/35/24 36/36/24 37/37/24
f 35/35/24 37/37/24 38/38/24
f 39/39/25 40/40/25 41/41/25
f 39/39/25 41/41/25 42/42/25
f 43/43/26 44/44/26 45/45/26
f 43/43/26 45/45/26 46/46/26
f 47/47/27 48/48/27 49/49/27
f 47/47/27 49/49/27 50/50/27
f 51/51/28 52/37/28 53/52/28
f 51/51/28 53/52/28 54/53/28
f 55/34/29 56/54/29 57/55/29
f 55/34/29 57/55/29 58/56/29
f 59/57/30 60/58/30 61/59/30
f 59/57/30 61/59/30 62/60/30
# Vertices: 62, normals: 30, texture coordinates: 60, faces: 40

